<svg width="50" height="50" viewBox="0 0 30 30" fill="none" xmlns="http://www.w3.org/2000/svg">
<path d="M26.4712 25.5287L16.9425 16L26.4712 6.47126C26.7208 6.21296 26.7208 5.80337 26.4712 5.54499C26.2155 5.28018 25.7934 5.27286 25.5286 5.52863L15.9999 15.0574L6.47123 5.52872C6.21293 5.2792 5.80334 5.2792 5.54496 5.52872C5.28015 5.78449 5.27283 6.20653 5.52861 6.47134L15.0573 16L5.52861 25.5286C5.40361 25.6536 5.33337 25.8231 5.33337 25.9999C5.33329 26.3681 5.6318 26.6666 5.99996 26.6667C6.1768 26.6668 6.34639 26.5965 6.47123 26.4713L15.9999 16.9426L25.5286 26.4713C25.6534 26.5966 25.8231 26.6669 26 26.6667C26.1766 26.6666 26.3461 26.5964 26.4711 26.4715C26.7315 26.2112 26.7316 25.7891 26.4712 25.5287Z" fill="white"/>
</svg>
