<svg width="100" height="100" viewBox="0 0 100 100" fill="none" xmlns="http://www.w3.org/2000/svg">
<g clip-path="url(#clip0_2039_1581)">
<path d="M48.6 85.4L15.7 52.8C14.3 51.5 13.2 50 12.2 48.4C6.79999 39.5 8.2 28.1 15.7 20.7C20 16.4 25.8 14 31.9 14C41.5 14 47.5 19.6 50 22.8C52.5 19.6 58.5 14 68.1 14C74.2 14 80 16.4 84.3 20.7C91.7 28.1 93.2 39.5 87.8 48.4C86.8 50 85.7 51.5 84.3 52.8L51.4 85.4C50.6 86.2 49.4 86.2 48.6 85.4ZM31.9 18C26.8 18 22.1 20 18.5 23.5C12.4 29.6 11.2 39 15.6 46.3C16.4 47.6 17.4 48.9 18.5 50L50 81.2L81.5 50C82.6 48.9 83.6 47.7 84.4 46.3C88.8 38.9 87.7 29.5 81.5 23.5C77.9 20 73.1 18 68.1 18C60.9 18 54.9 21.9 51.7 27.3C50.9 28.6 49 28.6 48.2 27.3C45.1 21.9 39.1 18 31.9 18Z" fill="white"/>
<path d="M944 -370V1314H-840V-370H944ZM952 -378H-848V1322H952V-378Z" fill="white"/>
</g>
<defs>
<clipPath id="clip0_2039_1581">
<rect width="100" height="100" fill="white"/>
</clipPath>
</defs>
</svg>
