<svg width="70" height="70" viewBox="0 0 30 30" fill="none" xmlns="http://www.w3.org/2000/svg">
<path d="M28.4697 24.9512H1.56921C1.27794 24.9512 1.04187 24.7151 1.04187 24.4238C1.04187 24.1325 1.27794 23.8965 1.56921 23.8965H28.4697C28.761 23.8965 28.9971 24.1325 28.9971 24.4238C28.9971 24.7151 28.761 24.9512 28.4697 24.9512ZM28.4697 15.5123H1.56921C1.27794 15.5123 1.04187 15.2762 1.04187 14.985C1.04187 14.6937 1.27794 14.4576 1.56921 14.4576H28.4697C28.761 14.4576 28.9971 14.6937 28.9971 14.985C28.9971 15.2762 28.761 15.5123 28.4697 15.5123ZM28.4697 6.07349H1.56921C1.27794 6.07349 1.04187 5.83741 1.04187 5.54614C1.04187 5.25487 1.27794 5.0188 1.56921 5.0188H28.4697C28.761 5.0188 28.9971 5.25487 28.9971 5.54614C28.9971 5.83741 28.761 6.07349 28.4697 6.07349Z" fill="white"/>
</svg>
